<svg id="Layer_1" data-name="Layer 1" xmlns="http://www.w3.org/2000/svg" viewBox="0 0 30.11 33.69"><defs><style>.cls-1{fill:#ff2478;}</style></defs><polygon class="cls-1" points="8.89 17.35 0 12.22 0 23.18 8.89 28.32 8.89 17.35"/><path class="cls-1" d="M29.61,16l-7.73-4.36V22.06l7.73-4.35A1,1,0,0,0,29.61,16Z"/><polygon class="cls-1" points="1.25 10.63 9.94 15.65 10.32 15.65 19.55 10.32 10.57 5.25 1.25 10.63"/><polygon class="cls-1" points="10.89 28.26 19.88 23.19 19.88 12.44 10.89 17.63 10.89 28.26"/><path class="cls-1" d="M8.54,4.11,1.47.13A1,1,0,0,0,0,1V9.05Z"/><path class="cls-1" d="M0,25.49V32.7a1,1,0,0,0,1.47.87L7.81,30Z"/></svg>